<?xml version="1.0" standalone="no"?>
<!DOCTYPE svg PUBLIC "-//W3C//DTD SVG 20010904//EN"
 "http://www.w3.org/TR/2001/REC-SVG-20010904/DTD/svg10.dtd">
<svg version="1.0" xmlns="http://www.w3.org/2000/svg"
 width="260.000000pt" height="260.000000pt" viewBox="0 0 260.000000 260.000000"
 preserveAspectRatio="xMidYMid meet">
<metadata>
Created by potrace 1.11, written by Peter Selinger 2001-2013
</metadata>
<g transform="translate(0.000000,260.000000) scale(0.100000,-0.100000)"
fill="#000000" stroke="none">
<path d="M0 2340 l0 -260 1300 0 1300 0 0 260 0 260 -1300 0 -1300 0 0 -260z"/>
<path d="M234 1714 c-34 -81 -214 -579 -214 -592 0 -9 12 -12 42 -10 l41 3 26
80 27 80 136 3 136 3 28 -83 29 -83 43 -3 c33 -2 42 0 42 13 0 14 -126 364
-198 550 l-27 70 -48 3 c-46 3 -48 2 -63 -34z m114 -208 c29 -79 52 -146 52
-150 0 -3 -50 -6 -111 -6 -102 0 -111 1 -104 18 4 9 28 77 54 149 25 73 48
133 51 133 3 0 29 -65 58 -144z"/>
<path d="M685 1737 c-3 -7 -4 -149 -3 -317 l3 -305 114 -3 c142 -3 205 13 250
63 74 84 57 218 -34 265 -17 8 -32 16 -34 17 -2 1 10 14 28 28 87 74 49 222
-66 254 -56 16 -252 14 -258 -2z m261 -90 c40 -47 26 -125 -27 -153 -16 -8
-56 -14 -94 -14 l-65 0 0 101 0 101 81 -4 c74 -3 83 -6 105 -31z m4 -256 c73
-39 77 -149 7 -191 -25 -16 -50 -20 -114 -20 l-83 0 0 115 0 115 78 0 c56 0
87 -5 112 -19z"/>
<path d="M0 260 l0 -260 1300 0 1300 0 0 260 0 260 -1300 0 -1300 0 0 -260z"/>
</g>
</svg>
